<svg width="42" height="51" fill="none" xmlns="http://www.w3.org/2000/svg"><path fill-rule="evenodd" clip-rule="evenodd" d="M6.019 6.968a1.695 1.695 0 01-.125-.074h.009a.296.296 0 01.01-.015c.007-.01.015-.022.02-.035a.503.503 0 01.035-.011l.035-.011c.065.046.088.096.112.147.011.025.023.051.04.078 2.464 1.547 3.842.716 4.806-1.442.133-.311.261-.647.386-1.005 1.139-3.344 3.817-3.385 6.408-3.424.829-.013 1.649-.025 2.406-.146 1.828-.286 1.245 1.417.453 2.236-.261.274-.569.505-.887.744-.8.601-1.671 1.255-2.055 2.784.739 0 1.446.005 2.132.01 1.505.009 2.906.018 4.307-.024 2.62-.078 3.064.875 1.62 2.995-.317.467-.573.977-.828 1.487-.319.636-.636 1.27-1.07 1.815-1.514 1.895-1.48 3.19 1.003 4.072.625.223 1.43.778 1.589 1.342.754 2.671 2.558 4.679 4.358 6.68 1.994 2.217 3.98 4.428 4.525 7.526.026.142.043.274.059.395.087.662.13.99 1.205.9 1.834-.173 4.003-.195 4.514 2.144.492 2.23-1.1 3.65-2.803 4.827-.232.159-.408.391-.606.651a9.37 9.37 0 01-.277.352c.157.685.751.704 1.307.72.555.018 1.072.034 1.08.71.01 1.129-1.198 1.654-2.034 1.912-4.264 1.325-8.756 1.775-13.128 1.686-2.334-.051-4.377.694-6.409 1.436-1.474.539-2.943 1.075-4.513 1.303-.23.034-.456.086-.686.138-.832.19-1.722.392-3.075-.152 1.605-.583 2.665-1.765 3.733-2.955 1.594-1.776 3.205-3.572 6.67-3.426-.607-.252-1.094-.457-1.503-.63l-.003-.001a40.527 40.527 0 00-1.811-.735c-2.33-.842-2.642-2.478-.903-4.373.98-1.063 1.658-2.205-.564-2.666-1.222-.252-.93-.775-.607-1.354.233-.418.483-.866.193-1.263-.372-.51.85-.655 1.556-.567 2.089.27 5.041.631 4.23-2.422a22.188 22.188 0 01-.195-.82v-.001c-.46-2.053-1.12-4.987-4.494-4.543-3.655.481-4.802-.425-2.516-3.741-.465-.208-1.109.032-1.725.262-1.17.438-2.244.839-1.822-1.926.025-.175-.32-.595-.39-.575-.265.084-.537.347-.807.61-.585.567-1.162 1.127-1.656-.16-.353-.918.244-1.16.944-1.445.713-.29 1.532-.622 1.57-1.752-.055-.18-.467-.183-.91-.188-.739-.007-1.566-.015-.968-.84 1.99-2.745.467-3.899-1.236-5.19-.175-.133-.352-.267-.528-.405-.23-.179-.146-.45-.057-.738.043-.137.086-.277.099-.414l-.003-.016-.003-.015a.594.594 0 00-.086-.383c-.046-.032-.088-.055-.131-.079zM1.478 27.186c-.561-.092-1.2-.68-1.14-1.528.123-1.556 4.865-4.725 6.97-4.6 1.94.107 2.565 1.424 3.153 2.663.238.502.47.991.78 1.381-.091 1.834-1.2 2.87-2.391 2.875-2.34.03-4.698-.355-7.027-.735l-.345-.056zM8.192 1.877c-2.625.7-4.14 2.095-3.953 4.914-1.758.173-1.248.888-.778 1.547.073.103.146.205.208.303.136-.309.372-.599.616-.898.155-.19.314-.385.451-.59L5.2 7.03c.245-.064.489-.129.732-.19.236-.522.643-.963 1.056-1.41.842-.913 1.708-1.852 1.205-3.554zM3.575 9.425c.422-.148.308-.442.092-.784-.109.24-.173.49-.092.784z" fill="#0E8784"/></svg>