<svg width="73" height="72" fill="none" xmlns="http://www.w3.org/2000/svg"><path fill-rule="evenodd" clip-rule="evenodd" d="M59.048 13.104c7.26 7.362 11.79 16.64 12.758 26.122.99 9.657-1.824 18.378-7.912 24.548C58.6 69.142 51.41 72 43.37 72c-1.212 0-2.441-.067-3.688-.198-9.35-.981-18.5-5.576-25.76-12.938C-1.19 43.537-3.364 20.812 9.079 8.194c12.434-12.622 34.852-10.413 49.97 4.91zm-25.52 26.932c5.831 1.62 11.2 3.137 16.153 6.97 3.883 3.008 6.649 6.83 9.446 10.695 1.288 1.78 2.582 3.568 3.995 5.29-1.633-14.333-8.738-26.645-23.097-30.87l-.67-.197c-6.278-1.84-12.011-3.521-17.235-7.876-3.36-2.803-5.834-6.281-8.321-9.78-1.271-1.787-2.546-3.58-3.944-5.29 1.704 14.557 8.994 26.977 23.673 31.058z" fill="#FDD6BA"/></svg>