<svg width="72" height="72" fill="none" xmlns="http://www.w3.org/2000/svg"><path fill-rule="evenodd" clip-rule="evenodd" d="M36 23.98c.1.014.2.02.302.02.574 0 1.14-.007 1.698-.02V39h28.711C69.612 39 72 36.63 72 33.75v-7.5c0-2.88-2.388-5.25-5.289-5.25H54.58C63.049 17.708 67 12.327 67 8.067 67 4.347 64.05.003 55.73 0 44.994 0 38.913 7.615 36 14.59 33.087 7.614 27.007 0 16.273 0 7.953 0 5 4.344 5 8.065 5 12.325 8.952 17.708 17.421 21H5.29C2.388 21 0 23.37 0 26.25v7.5C0 36.63 2.388 39 5.289 39H34V23.98c.558.013 1.124.02 1.698.02.102 0 .203-.006.302-.02zm3.175-4.496c1.384-4.928 5.56-15.03 16.556-15.03 3.223 0 6.664.946 6.664 3.61 0 1.79-1.556 4.593-5.925 7.1-3.15 1.807-8.62 3.929-17.295 4.32zM34 44H6v22.842C6 69.672 8.391 72 11.297 72H34V44zm32 22.842V44H38v28h22.703C63.609 72 66 69.672 66 66.842zM16.273 4.451c-3.224 0-6.668.95-6.668 3.614 0 3.79 6.855 10.695 23.217 11.422-1.381-4.932-5.556-15.036-16.55-15.036z" fill="#FDD6BA"/></svg>