<svg width="49" height="44" fill="none" xmlns="http://www.w3.org/2000/svg"><path fill-rule="evenodd" clip-rule="evenodd" d="M4.122 32.863c.483-3.092-.869-6.261-2.324-9.177-.19-.38-.38-.756-.569-1.127-.398-.785-.786-1.547-1.128-2.28a1.113 1.113 0 01-.072-.72l.92-3.856c.088-.373.366-.672.73-.786 1.97-.62 8.258-2.854 8.824-6.137a.31.31 0 01.092-.171l5.363-5.196a.319.319 0 01.468.03c.504.637 1.908 2.053 3.995 1.355l-.648-.656a.317.317 0 01.006-.455L22.23 1.36a.302.302 0 01.216-.088h7.476a.32.32 0 01.247.522l-2.401 2.932a.321.321 0 00.072.47l2.531 1.662 2.353 1.544a1.483 1.483 0 002.19-.677c.397-.967.767-2.472.772-4.71 0-.037.005-.078.02-.114L36.746.2a.317.317 0 01.57-.04c.51.889 1.42 2.776 1.42 4.979l.498-.362a.315.315 0 01.438.062l1.09 1.427a.34.34 0 01.061.222c-.072.77-.272 5.015 3.435 6.716a.312.312 0 01.154.15l4.525 9.1c.02.047.03.093.03.145v3.831c0 .585-.246 1.138-.683 1.526-1.774 1.582-6.412 5.971-6.695 9.012a.314.314 0 01-.313.284H33.3a.302.302 0 01-.149-.036c-.514-.28-3.229-3.857-3.78-7.327a.315.315 0 00-.544-.16l-1.784 1.985a.863.863 0 01-.648.29.558.558 0 01-.55-.465c-.206-1.21-1.121-4.374-4.957-4.374-2.057 0-5.26.796-8.232 1.695 0 0-3.29 1.034-5.722 4.344a.442.442 0 01-.36.18H4.569a.454.454 0 01-.447-.522zM40.52 43.188a.99.99 0 01-1.517.58 18.333 18.333 0 01-4.067-3.79.413.413 0 01.324-.667h5.707c.273 0 .468.253.401.517l-.848 3.36z" fill="#0E8784"/></svg>