<svg width="52" height="50" fill="none" xmlns="http://www.w3.org/2000/svg"><path fill-rule="evenodd" clip-rule="evenodd" d="M28.274 5.05V.06L22.831 0 20.79 3.386l2.495 2.496 4.99-.833zm-5.82 5.82L15.8 4.218l-3.326 3.327 5.673 5.053 4.306-1.726zm6.994 3.892l-3.322-2.416.604-2.717 5.702-.42 7.485 5.82-1.663 4.99-2.495 1.663-2.495-1.664v-2.495l-2.495-3.326-1.321.565zm19.616 32.7h-1.663a.832.832 0 010-1.664h1.663a.832.832 0 110 1.663zm0-11.643h1.664a.832.832 0 000-1.663h-1.664a.832.832 0 000 1.663zm-9.979 0l4.99-3.327v-3.326l-4.99-4.99-3.326 3.327-3.327-3.327-3.326 2.495 3.326 4.158-2.494 4.99-2.495-4.158-5.821-2.495 3.326-6.653 2.495-3.326-5.821-3.327-3.327 3.327L7.485 8.376.831 15.86l1.954 8.052L0 26.672l2.495 7.484 19.958 9.979 2.495-4.158 4.99 3.326 3.326 6.653 4.158-6.653h6.653l.831-4.99-5.82-2.494z" fill="#0E8784"/></svg>