<svg width="72" height="50" fill="none" xmlns="http://www.w3.org/2000/svg"><path fill-rule="evenodd" clip-rule="evenodd" d="M4.846 0H9v4.167H4.846V0zM0 19.444h4.154v4.167H0v-4.167zM16.433 4.23h-3.306V0h35.334v35.397a10.498 10.498 0 00-3.65 7.659H27.05c-.165-5.647-4.787-10.19-10.448-10.19-5.662 0-10.283 4.543-10.449 10.19H0V29.12h11.77a2.736 2.736 0 002.726-2.739 2.736 2.736 0 00-2.726-2.739H8.345v-4.229h17.92a2.736 2.736 0 002.728-2.738 2.736 2.736 0 00-2.727-2.74H0V9.708h16.602a2.736 2.736 0 002.726-2.739c0-1.459-1.352-2.739-2.895-2.739zm32.72 39.521c0-3.446 2.796-6.25 6.232-6.25 3.435 0 6.23 2.804 6.23 6.25S58.82 50 55.385 50c-3.436 0-6.231-2.804-6.231-6.25zm4.131 2.107h4.2v-4.214h-4.2v4.214zM52.615 4.86h8.447l9.553 14.583h-18V4.861zm0 18.75v9.564a10.588 10.588 0 012.613-.326c5.72 0 10.389 4.55 10.556 10.207H72V23.61H52.615zm-36 13.889c-3.435 0-6.23 2.804-6.23 6.25S13.18 50 16.615 50c3.436 0 6.231-2.804 6.231-6.25s-2.795-6.25-6.23-6.25zm2.1 8.357h-4.2v-4.214h4.2v4.214z" fill="#FDD6BA"/></svg>