<svg width="25" height="24" fill="none" xmlns="http://www.w3.org/2000/svg"><path fill-rule="evenodd" clip-rule="evenodd" d="M12.1 0C8.841 0 8.433.014 7.153.072 2.795.272.373 2.69.173 7.052.114 8.333.1 8.741.1 12c0 3.259.014 3.668.072 4.948.2 4.358 2.618 6.78 6.98 6.98 1.281.058 1.69.072 4.948.072 3.26 0 3.668-.014 4.948-.072 4.354-.2 6.782-2.618 6.98-6.98.058-1.28.072-1.689.072-4.948 0-3.259-.014-3.667-.072-4.947-.196-4.354-2.617-6.78-6.979-6.98C15.77.014 15.36 0 12.1 0zm0 2.163c3.204 0 3.584.012 4.85.07 3.252.148 4.771 1.691 4.92 4.919.057 1.265.068 1.645.068 4.849 0 3.205-.012 3.584-.069 4.849-.149 3.225-1.664 4.771-4.919 4.919-1.266.058-1.644.07-4.85.07-3.204 0-3.584-.012-4.849-.07-3.26-.149-4.77-1.699-4.919-4.92-.058-1.265-.07-1.644-.07-4.849 0-3.204.013-3.583.07-4.849.15-3.227 1.664-4.771 4.92-4.919 1.265-.057 1.644-.069 4.848-.069zM5.938 12a6.162 6.162 0 1112.325 0 6.162 6.162 0 01-12.325 0zm6.162 4a4 4 0 110-8 4 4 0 010 8zm4.965-10.405a1.44 1.44 0 112.881.001 1.44 1.44 0 01-2.88-.001z" fill="#FEFCF7"/></svg>