<svg width="163" height="18" fill="none" xmlns="http://www.w3.org/2000/svg"><path fill-rule="evenodd" clip-rule="evenodd" d="M52.25 16.133c0 .351-.176.527-.529.527h-6.213a.514.514 0 01-.366-.132.484.484 0 01-.141-.372c0-.137.032-.248.096-.331a.674.674 0 01.298-.207l.484-.148a.504.504 0 00.282-.218c.067-.107.1-.26.1-.457V8.18a.446.446 0 00-.078-.268c-.053-.073-.15-.14-.293-.2l-.653-.218a1.053 1.053 0 01-.371-.269.547.547 0 01-.113-.349c0-.137.047-.25.141-.338l.037-.03c.09-.068.207-.101.351-.101h.988l-.008-.067a.934.934 0 00-.158-.385c-.112-.164-.24-.35-.383-.555a3.63 3.63 0 01-.382-.738c-.113-.286-.17-.64-.17-1.059 0-1 .339-1.798 1.014-2.397.675-.599 1.636-.898 2.882-.898.803 0 1.469.13 1.998.389.53.26.925.604 1.188 1.035.262.431.394.902.394 1.414 0 .602-.156 1.054-.468 1.356-.311.3-.71.452-1.198.452-.54 0-.976-.176-1.306-.527-.33-.35-.496-.816-.496-1.396V2.013c0-.267-.052-.464-.157-.59-.105-.126-.267-.188-.484-.188-.278 0-.488.095-.63.286-.143.19-.215.465-.215.823 0 .367.085.71.254 1.03.169.32.377.62.624.899.248.278.496.545.743.8.248.256.456.508.625.756l.048.074c.092.149.152.297.183.444l.01.06h1.667c.173 0 .306.036.4.109.094.072.14.184.14.337a.67.67 0 01-.292.56c-.195.146-.503.218-.923.218h-.8v7.13c0 .213.033.377.096.491a.406.406 0 00.31.206l.968.149c.173.023.3.078.383.166a.505.505 0 01.124.36zm-22.165.264c-.675.328-1.463.492-2.364.492-.953 0-1.806-.203-2.56-.607a4.425 4.425 0 01-1.785-1.756c-.435-.767-.653-1.7-.653-2.798 0-1.06.227-2.008.681-2.844a5.103 5.103 0 011.897-1.98c.81-.484 1.756-.726 2.837-.726.923 0 1.701.137 2.336.412.634.275 1.118.646 1.452 1.116.334.469.5.993.5 1.573 0 .61-.174 1.089-.523 1.436-.349.347-.823.52-1.424.52-.615 0-1.082-.177-1.401-.531-.32-.355-.479-.841-.479-1.46v-.732c0-.373-.067-.656-.202-.846a.662.662 0 00-.574-.287c-.248 0-.471.102-.67.304-.199.202-.353.505-.462.91-.108.404-.163.903-.163 1.498 0 .855.126 1.572.377 2.152.252.58.595 1.014 1.03 1.304.436.29.93.435 1.486.435.556 0 1.02-.082 1.396-.246.375-.164.664-.44.867-.83a1.2 1.2 0 01.264-.206.43.43 0 01.186-.045.259.259 0 01.186.108c.049.065.07.166.062.304-.06.747-.29 1.407-.687 1.98a4.093 4.093 0 01-1.61 1.35zm11.443-.23c-.844.466-1.825.699-2.944.699-1.088 0-2.043-.227-2.865-.681a4.887 4.887 0 01-1.919-1.882c-.458-.802-.686-1.728-.686-2.781 0-1.007.24-1.913.72-2.718a5.249 5.249 0 011.992-1.917c.849-.473 1.824-.71 2.927-.71 1.096 0 2.053.23 2.87.688a4.914 4.914 0 011.915 1.9c.457.808.686 1.742.686 2.803 0 1.007-.238 1.909-.715 2.706a5.161 5.161 0 01-1.98 1.894zm-2.088-.491c-.233.046-.46-.058-.681-.31-.221-.251-.432-.674-.63-1.27-.2-.595-.389-1.376-.569-2.345-.173-.97-.27-1.766-.293-2.392-.022-.625.023-1.098.136-1.419.112-.32.285-.507.517-.56.233-.046.46.057.681.308.222.252.434.676.636 1.27.203.596.394 1.378.575 2.346.18.97.279 1.768.298 2.398.019.63-.03 1.104-.147 1.424-.116.32-.29.504-.523.55zm20.139.984c.353 0 .53-.176.53-.527a.505.505 0 00-.125-.36c-.082-.088-.21-.143-.383-.166l-.968-.149a.407.407 0 01-.31-.206c-.063-.114-.095-.278-.095-.492V7.631h.8c.42 0 .727-.072.922-.217a.67.67 0 00.293-.56c0-.154-.047-.266-.14-.338-.094-.073-.228-.11-.4-.11h-1.668l-.01-.06a1.384 1.384 0 00-.182-.443l-.048-.074a5.742 5.742 0 00-.625-.755 25.56 25.56 0 01-.743-.801 4.522 4.522 0 01-.625-.899 2.177 2.177 0 01-.253-1.03c0-.358.071-.633.214-.823.142-.191.353-.286.63-.286.218 0 .38.062.484.188.105.126.158.323.158.59V3.03c0 .58.165 1.045.495 1.396.33.351.766.527 1.306.527.488 0 .888-.151 1.199-.452.311-.302.467-.754.467-1.356 0-.512-.131-.983-.394-1.414-.263-.43-.658-.776-1.188-1.035-.529-.26-1.195-.39-1.998-.39-1.245 0-2.206.3-2.881.899-.676.599-1.014 1.398-1.014 2.397 0 .42.057.773.17 1.059.112.286.24.532.382.738l.383.555a.934.934 0 01.158.385l.008.067h-.988a.572.572 0 00-.352.1l-.036.031a.441.441 0 00-.141.338c0 .137.037.254.112.349.075.095.2.185.372.269l.653.217c.142.061.24.128.293.2a.446.446 0 01.078.27v6.614c0 .198-.033.35-.101.457a.504.504 0 01-.281.218l-.485.148a.674.674 0 00-.298.207.534.534 0 00-.096.331c0 .16.047.285.141.372a.514.514 0 00.366.132h6.214zm8.814-.332c-.728.374-1.568.56-2.521.56-1.05 0-1.974-.219-2.77-.657a4.718 4.718 0 01-1.863-1.843c-.446-.79-.67-1.703-.67-2.74 0-1.091.216-2.047.648-2.867a4.622 4.622 0 011.874-1.916c.818-.458 1.801-.687 2.95-.687.975 0 1.816.193 2.521.578a4.089 4.089 0 011.627 1.568c.379.66.568 1.394.568 2.202 0 .351-.094.628-.281.83l-.045.045c-.185.172-.44.258-.766.258H64.52l.011.053c.137.628.37 1.131.7 1.51.563.644 1.313.966 2.251.966.6 0 1.132-.137 1.593-.412.462-.274.772-.656.93-1.144.09-.1.17-.166.241-.2a.442.442 0 01.186-.052c.075 0 .139.03.191.092.053.06.08.164.08.309 0 .747-.204 1.432-.609 2.054-.405.621-.972 1.12-1.7 1.493zm-3.991-5.586a9.004 9.004 0 01-.016-.548c0-.717.052-1.281.157-1.693.105-.412.24-.704.406-.876.165-.171.349-.257.551-.257.263 0 .509.225.738.675.228.45.343 1.198.343 2.243 0 .32-.143.48-.428.48h-1.75l-.001-.024zm14.753 5.586c-.728.374-1.568.56-2.521.56-1.051 0-1.974-.219-2.77-.657a4.717 4.717 0 01-1.863-1.843c-.446-.79-.67-1.703-.67-2.74 0-1.091.216-2.047.648-2.867a4.622 4.622 0 011.874-1.916c.818-.458 1.801-.687 2.95-.687.975 0 1.816.193 2.521.578a4.088 4.088 0 011.627 1.568c.379.66.568 1.394.568 2.202 0 .351-.094.628-.281.83l-.045.045c-.185.172-.44.258-.766.258h-5.146l.011.053c.137.628.37 1.131.7 1.51.563.644 1.313.966 2.251.966.6 0 1.132-.137 1.593-.412.462-.274.771-.656.929-1.144.09-.1.17-.166.242-.2a.442.442 0 01.186-.052c.075 0 .139.03.191.092.053.06.079.164.079.309 0 .747-.203 1.432-.608 2.054-.405.621-.972 1.12-1.7 1.493zm-3.991-5.586a9.004 9.004 0 01-.016-.548c0-.717.052-1.281.157-1.693.105-.412.24-.704.405-.876.166-.171.35-.257.552-.257.263 0 .508.225.737.675.23.45.344 1.198.344 2.243 0 .32-.143.48-.428.48h-1.75l-.001-.024zm13.588 5.775c-.094.095-.23.143-.411.143h-5.629a.533.533 0 01-.388-.137.503.503 0 01-.14-.378c0-.122.028-.223.084-.303a.933.933 0 01.23-.224l.26-.103a.381.381 0 00.202-.217c.038-.1.056-.263.056-.492V8.993c0-.183-.02-.315-.062-.395a.427.427 0 00-.208-.189l-.292-.034a.723.723 0 01-.231-.195.444.444 0 01-.073-.263c0-.122.037-.23.112-.326.075-.095.203-.177.383-.246l3.197-.927c.188-.076.345-.13.473-.16a1.44 1.44 0 01.326-.046c.128 0 .223.046.287.138l.02.033c.053.095.09.248.11.459l.085 1.778.02-.066a4.53 4.53 0 01.125-.356c.274-.683.636-1.19 1.087-1.522.45-.332.942-.498 1.474-.498.646 0 1.141.217 1.486.652.346.435.518 1.095.518 1.98 0 .877-.18 1.522-.54 1.934-.36.412-.826.618-1.396.618-.555 0-.966-.142-1.233-.424-.266-.282-.407-.683-.422-1.201l-.011-.458a.869.869 0 00-.101-.412c-.06-.1-.158-.149-.293-.149-.135 0-.253.07-.355.212-.101.141-.178.357-.23.647-.053.29-.08.66-.08 1.11v4.027c0 .214.035.384.102.51a.447.447 0 00.315.234l.845.172c.157.023.27.082.337.177a.57.57 0 01.102.338.508.508 0 01-.141.372zm9 .349c1.118 0 2.1-.233 2.944-.698a5.166 5.166 0 001.981-1.894c.477-.797.715-1.7.715-2.706 0-1.06-.229-1.995-.687-2.804a4.916 4.916 0 00-1.914-1.9c-.818-.457-1.775-.686-2.87-.686-1.103 0-2.079.236-2.927.71a5.25 5.25 0 00-1.993 1.916c-.48.805-.72 1.71-.72 2.718 0 1.053.229 1.98.687 2.78a4.887 4.887 0 001.919 1.883c.822.454 1.777.68 2.865.68zm.174-1.5c.222.252.449.356.681.31.233-.046.408-.23.524-.55.116-.32.165-.795.146-1.424-.019-.63-.118-1.429-.298-2.398-.18-.968-.371-1.75-.574-2.345-.203-.595-.415-1.019-.636-1.27-.222-.252-.449-.355-.681-.31-.233.054-.405.24-.518.561-.113.32-.158.794-.135 1.42.022.625.12 1.422.293 2.39.18.97.37 1.752.568 2.347.199.595.41 1.018.63 1.27zm14.393 1.523c.63 0 1.148-.117 1.553-.35.405-.232.707-.509.906-.829.199-.32.299-.614.299-.881a.528.528 0 00-.073-.286.225.225 0 00-.197-.115.221.221 0 00-.102.023.228.228 0 00-.079.069c-.037.137-.095.233-.174.286a.443.443 0 01-.253.08c-.128 0-.224-.044-.287-.131a.579.579 0 01-.096-.35V9.348c0-1.007-.34-1.787-1.019-2.34-.679-.554-1.743-.83-3.191-.83-1.126 0-2.066.141-2.82.423-.754.283-1.321.643-1.7 1.082-.379.438-.569.887-.569 1.344 0 .489.141.86.423 1.116.281.255.688.383 1.221.383.653 0 1.167-.177 1.542-.532.376-.355.563-.814.563-1.379v-.87c0-.213.066-.379.197-.497a.705.705 0 01.49-.178c.21 0 .377.079.501.235.124.156.185.368.185.635v3.336l-.06-.013a3.742 3.742 0 00-.629-.06l-.121-.002c-1.614 0-2.816.275-3.608.824-.792.55-1.188 1.316-1.188 2.3 0 .748.272 1.362.817 1.843.544.48 1.266.72 2.167.72a4.35 4.35 0 001.891-.417 3.008 3.008 0 001.07-.823l.015-.02.017.052c.086.247.245.468.476.664l.071.058c.416.325 1.004.487 1.762.487zm-3.878-2.157a.86.86 0 00.726.372l.064-.003a.938.938 0 00.372-.107l.036-.02v-2.937l-.056-.017a1.739 1.739 0 00-.45-.052c-.293 0-.527.137-.704.412-.176.275-.264.679-.264 1.213 0 .511.092.89.276 1.139zm11.814 2.191c1.336 0 2.36-.309 3.073-.927.713-.618 1.07-1.46 1.07-2.529 0-.648-.12-1.217-.361-1.705-.24-.488-.66-.921-1.26-1.299-.601-.377-1.445-.734-2.533-1.07-.406-.13-.719-.26-.94-.394-.222-.134-.374-.277-.456-.43a1.013 1.013 0 01-.124-.492c0-.259.094-.469.281-.629.188-.16.466-.24.833-.24.511 0 .993.171 1.447.515.454.343.955.93 1.503 1.762.142.175.285.303.428.383a.55.55 0 00.405.075.399.399 0 00.293-.315c.037-.164.03-.399-.023-.704l-.293-2.105c-.03-.221-.086-.378-.169-.47a.417.417 0 00-.326-.137c-.12 0-.27.042-.45.126-.18.084-.359.17-.535.258-.176.087-.31.131-.4.131-.082 0-.204-.046-.365-.137a3.635 3.635 0 00-.682-.275c-.292-.091-.671-.137-1.136-.137-.773 0-1.47.141-2.089.423a3.465 3.465 0 00-1.463 1.208c-.357.522-.535 1.146-.535 1.87 0 .641.133 1.202.4 1.683.266.48.673.892 1.221 1.236.548.343 1.238.621 2.072.835.54.145.954.292 1.243.44.289.15.488.311.597.487.109.175.163.37.163.583a.936.936 0 01-.281.698c-.188.184-.473.275-.856.275-.36 0-.703-.078-1.03-.235-.326-.156-.662-.425-1.007-.806-.345-.382-.732-.904-1.16-1.568a1.052 1.052 0 00-.433-.366.58.58 0 00-.49.011c-.157.061-.259.191-.304.39-.045.198-.034.442.034.732l.349 2.277c.053.229.128.381.225.458a.503.503 0 00.315.114c.128 0 .284-.042.468-.126l.551-.252c.184-.084.332-.126.445-.126.112 0 .261.043.444.126.184.084.424.168.721.252.296.084.67.126 1.12.126zm10.672-.43c-.496.264-1.081.396-1.756.396-1.141 0-1.999-.279-2.573-.836-.574-.557-.861-1.434-.861-2.632V8.25c0-.16-.015-.282-.045-.366-.03-.084-.105-.153-.225-.206l-.529-.172c-.128-.06-.21-.135-.248-.223a.84.84 0 01-.056-.326.51.51 0 01.169-.395.592.592 0 01.416-.154h.552a.372.372 0 00.214-.08c.075-.054.176-.16.304-.32l2.082-1.752c.15-.183.301-.322.451-.417.15-.096.3-.143.45-.143a.52.52 0 01.405.16l.031.038c.077.107.116.262.116.465l-.001 2.049h2.353c.165 0 .293.036.383.109.09.072.135.184.135.337 0 .214-.094.397-.281.55l-.042.03c-.189.132-.476.198-.859.198h-1.689l.001 5.218c0 .572.095.996.287 1.27.191.275.471.412.838.412a.953.953 0 00.439-.103c.135-.068.257-.158.366-.269.109-.11.212-.234.31-.371.097-.138.191-.275.281-.412a.167.167 0 01.197.04c.056.057.081.173.073.349-.052.618-.223 1.161-.512 1.63a3.02 3.02 0 01-1.176 1.099zm7.373.396c.953 0 1.794-.187 2.522-.561.728-.374 1.294-.872 1.7-1.493a3.685 3.685 0 00.607-2.054c0-.145-.026-.248-.078-.31a.246.246 0 00-.192-.09.44.44 0 00-.185.05.848.848 0 00-.242.2c-.158.49-.468.87-.929 1.145-.462.275-.993.412-1.593.412-.938 0-1.689-.322-2.251-.967-.33-.378-.564-.88-.7-1.509l-.011-.053h5.146c.325 0 .581-.086.766-.258l.044-.045c.188-.202.282-.479.282-.83 0-.808-.19-1.543-.569-2.202a4.09 4.09 0 00-1.626-1.568c-.706-.385-1.546-.578-2.522-.578-1.148 0-2.131.229-2.949.687a4.627 4.627 0 00-1.875 1.916c-.431.82-.647 1.776-.647 2.867 0 1.037.223 1.95.67 2.74a4.71 4.71 0 001.863 1.843c.795.438 1.718.658 2.769.658zm-1.486-6.694c0 .189.006.371.016.547l.002.025h1.75c.285 0 .427-.16.427-.481 0-1.045-.114-1.793-.343-2.243-.229-.45-.475-.675-.737-.675-.203 0-.387.086-.552.257-.165.172-.3.464-.405.876-.105.412-.158.976-.158 1.694zm13.194 6.465c.18 0 .317-.048.41-.143a.507.507 0 00.141-.372.573.573 0 00-.101-.338c-.068-.095-.18-.154-.338-.177l-.844-.172a.445.445 0 01-.315-.234c-.068-.126-.102-.296-.102-.51v-4.027c0-.45.027-.82.079-1.11.053-.29.13-.506.231-.647.101-.141.219-.212.355-.212.135 0 .232.05.292.15.06.098.094.236.102.411l.011.458c.015.518.156.919.422 1.201.266.282.677.424 1.233.424.57 0 1.035-.206 1.395-.618.361-.412.541-1.057.541-1.934 0-.885-.173-1.545-.518-1.98-.345-.435-.841-.652-1.486-.652-.533 0-1.024.166-1.475.498-.45.332-.812.839-1.086 1.522a4.787 4.787 0 00-.126.356l-.019.066-.086-1.778c-.02-.21-.056-.364-.109-.46l-.02-.032c-.064-.092-.16-.138-.287-.138-.09 0-.199.016-.327.046a3.46 3.46 0 00-.473.16l-3.197.927c-.18.069-.307.15-.382.246a.514.514 0 00-.113.326.45.45 0 00.073.263.727.727 0 00.231.195l.293.034a.428.428 0 01.208.19c.041.08.062.21.062.394v5.813c0 .229-.019.393-.056.492a.382.382 0 01-.203.217l-.259.103a.958.958 0 00-.231.224.517.517 0 00-.084.303c0 .16.047.286.141.378a.53.53 0 00.388.137h5.629zm11.853-.664c-.713.618-1.737.927-3.073.927-.45 0-.823-.042-1.12-.126a5.15 5.15 0 01-.72-.252c-.184-.084-.332-.126-.445-.126-.113 0-.261.043-.445.126l-.551.252c-.184.084-.34.126-.467.126a.504.504 0 01-.316-.114c-.097-.077-.172-.23-.225-.458l-.349-2.277c-.067-.29-.079-.534-.034-.733.045-.198.147-.328.304-.389a.58.58 0 01.49-.011c.161.068.306.19.433.366.428.664.815 1.186 1.16 1.568.345.381.681.65 1.007.806.327.157.67.235 1.03.235.383 0 .668-.091.856-.275a.932.932 0 00.281-.698c0-.213-.054-.408-.163-.583-.109-.176-.307-.338-.596-.487-.289-.148-.704-.295-1.244-.44-.833-.214-1.524-.492-2.072-.835-.547-.344-.955-.756-1.221-1.236-.266-.481-.4-1.042-.4-1.682 0-.725.179-1.349.535-1.871a3.47 3.47 0 011.463-1.208c.62-.282 1.316-.423 2.089-.423.465 0 .844.046 1.137.137.292.092.519.183.681.275.161.091.283.137.366.137.09 0 .223-.044.399-.131.177-.088.355-.174.535-.258.18-.084.33-.126.45-.126a.42.42 0 01.327.138c.082.091.139.248.169.469l.292 2.105c.053.305.06.54.023.704a.397.397 0 01-.293.315.55.55 0 01-.405-.075 1.552 1.552 0 01-.428-.383c-.548-.832-1.049-1.419-1.503-1.762-.454-.344-.936-.515-1.446-.515-.368 0-.646.08-.833.24a.787.787 0 00-.282.63c0 .175.041.339.124.492.083.152.235.295.456.429.221.133.535.265.94.394 1.088.336 1.932.693 2.533 1.07.6.378 1.02.81 1.261 1.3.24.487.36 1.056.36 1.704 0 1.068-.357 1.911-1.07 2.53z" fill="#333D4B"/><path fill-rule="evenodd" clip-rule="evenodd" d="M9.938 3.079C7.511.648 3.913.298 1.918 2.299-.08 4.302.27 7.909 2.694 10.34a7.324 7.324 0 002.177 1.5c.258-1.503.998-2.948 2.12-4.134a15.884 15.884 0 00-1.15-.354c-2.356-.648-3.527-2.618-3.8-4.927.226.272.432.558.637.843.399.554.795 1.104 1.332 1.547.836.69 1.754.956 2.758 1.248.038.01.077.022.116.034.476.138.889.342 1.268.581a7.827 7.827 0 013.281-1.416 7.321 7.321 0 00-1.495-2.182zm-4.104 9.337c.154-1.505.881-2.977 2.047-4.145 2.427-2.43 6.025-2.782 8.02-.779 1.997 2.001 1.649 5.608-.778 8.04-1.165 1.169-2.633 1.898-4.134 2.053-.2.02-.398.03-.592.03-1.29 0-2.444-.453-3.293-1.305-.978-.98-1.43-2.362-1.27-3.894zm3.55 1.234c.796-.608 1.657-.849 2.593-1.106 2.356-.648 3.526-2.617 3.8-4.927-.224.271-.429.555-.632.838-.4.556-.797 1.108-1.337 1.553-.839.69-1.758.957-2.767 1.25l-.107.031c-2.305.67-3.445 2.624-3.708 4.897.227-.273.435-.557.642-.84.45-.612.893-1.219 1.516-1.696z" fill="#0E8784"/></svg>