<svg width="218" height="24" fill="none" xmlns="http://www.w3.org/2000/svg"><path fill-rule="evenodd" clip-rule="evenodd" d="M69.832 21.511c0 .468-.236.702-.707.702H60.82a.688.688 0 01-.489-.175c-.125-.117-.188-.283-.188-.496 0-.183.043-.33.128-.443a.903.903 0 01.398-.274l.647-.199a.674.674 0 00.377-.29c.09-.142.135-.345.135-.61v-8.819a.594.594 0 00-.105-.358c-.07-.097-.2-.186-.392-.267l-.872-.29c-.23-.112-.396-.232-.497-.359a.728.728 0 01-.15-.465c0-.183.063-.333.188-.45l.05-.041a.766.766 0 01.47-.135h1.32l-.011-.089a1.242 1.242 0 00-.212-.513c-.15-.219-.32-.466-.511-.74a4.831 4.831 0 01-.512-.984c-.15-.382-.225-.852-.225-1.412 0-1.332.451-2.398 1.354-3.196C62.625.809 63.909.41 65.574.41c1.073 0 1.963.173 2.67.519.708.346 1.237.806 1.588 1.38.35.575.526 1.204.526 1.885 0 .804-.208 1.406-.624 1.808-.416.402-.95.603-1.602.603-.722 0-1.304-.234-1.745-.702-.442-.468-.662-1.089-.662-1.862V2.684c0-.356-.07-.618-.211-.786-.14-.168-.356-.252-.647-.252-.371 0-.652.127-.843.381-.19.255-.285.62-.285 1.099 0 .488.113.946.338 1.373.226.427.504.827.835 1.198.331.371.662.727.993 1.068.331.34.61.676.835 1.007l.065.099c.121.198.203.395.243.591l.014.08h2.228c.23 0 .409.049.534.145.126.097.188.247.188.45 0 .306-.13.555-.39.748-.261.193-.673.29-1.234.29h-1.069v9.505c0 .285.043.504.128.656a.543.543 0 00.414.275l1.294.198c.23.03.401.105.511.222.11.117.166.277.166.48zm-29.624.351c-.902.438-1.955.656-3.159.656-1.274 0-2.415-.27-3.423-.808a5.909 5.909 0 01-2.384-2.342c-.582-1.023-.873-2.266-.873-3.73 0-1.415.303-2.679.91-3.792a6.812 6.812 0 012.535-2.64c1.084-.646 2.347-.969 3.792-.969 1.233 0 2.274.183 3.121.55.848.366 1.495.862 1.941 1.487.447.626.67 1.325.67 2.098 0 .814-.233 1.452-.7 1.915-.466.463-1.1.694-1.903.694-.822 0-1.447-.236-1.873-.71-.426-.472-.64-1.12-.64-1.945v-.976c0-.499-.09-.875-.27-1.13-.18-.254-.437-.38-.768-.38-.33 0-.629.134-.895.404s-.471.674-.617 1.213c-.145.539-.218 1.205-.218 1.998 0 1.14.168 2.096.504 2.869.336.773.795 1.352 1.377 1.739s1.243.58 1.986.58c.742 0 1.364-.11 1.865-.328.502-.219.888-.588 1.159-1.106.15-.143.268-.234.353-.275a.575.575 0 01.249-.061c.1.01.183.058.248.145.065.086.093.221.083.404-.08.997-.387 1.877-.918 2.64-.532.763-1.249 1.363-2.152 1.8zm15.294-.305c-1.129.62-2.44.93-3.935.93-1.454 0-2.73-.302-3.829-.907a6.524 6.524 0 01-2.565-2.51c-.612-1.068-.918-2.304-.918-3.707 0-1.343.321-2.551.963-3.624.642-1.073 1.53-1.925 2.663-2.556 1.134-.63 2.438-.946 3.912-.946 1.464 0 2.743.305 3.837.916a6.56 6.56 0 012.557 2.532c.612 1.079.918 2.325.918 3.739 0 1.342-.319 2.545-.955 3.608-.637 1.063-1.52 1.904-2.648 2.525zm-2.791-.656c-.311.061-.615-.076-.91-.412-.296-.336-.577-.9-.843-1.694-.266-.793-.519-1.836-.76-3.127-.23-1.292-.36-2.355-.39-3.19-.031-.833.03-1.464.18-1.891.15-.427.38-.677.692-.748.31-.06.614.077.91.412.296.336.58.9.85 1.694.27.793.527 1.836.767 3.128.24 1.291.374 2.357.399 3.196.025.84-.04 1.472-.196 1.9-.155.427-.388.67-.7.732zm26.915 1.312c.471 0 .707-.234.707-.702 0-.203-.055-.363-.165-.48-.11-.117-.281-.191-.512-.222l-1.294-.198a.544.544 0 01-.413-.275c-.086-.152-.128-.37-.128-.656v-9.505h1.068c.562 0 .973-.097 1.234-.29.26-.193.39-.442.39-.748 0-.203-.062-.353-.187-.45-.126-.096-.304-.145-.534-.145h-2.229l-.014-.08a1.843 1.843 0 00-.243-.591l-.064-.1a7.65 7.65 0 00-.836-1.006c-.33-.34-.662-.697-.993-1.068-.33-.371-.609-.77-.834-1.198a2.897 2.897 0 01-.339-1.373c0-.478.095-.844.286-1.099.19-.254.471-.381.842-.381.291 0 .507.084.647.252.14.168.211.43.211.786V4.04c0 .773.22 1.394.662 1.862.441.468 1.023.702 1.745.702.652 0 1.186-.201 1.602-.603.417-.402.625-1.004.625-1.808 0-.681-.176-1.31-.527-1.884-.35-.575-.88-1.035-1.587-1.381-.707-.346-1.597-.519-2.67-.519-1.665 0-2.95.4-3.852 1.198-.903.798-1.354 1.864-1.354 3.196 0 .56.075 1.03.226 1.412.15.381.32.71.511.984l.512.74c.112.164.183.335.211.513l.01.09h-1.32a.766.766 0 00-.47.134l-.049.04a.588.588 0 00-.188.45c0 .184.05.34.15.466.101.127.267.247.497.359l.873.29c.19.081.32.17.391.267.07.096.105.216.105.358v8.82c0 .264-.045.467-.135.61a.673.673 0 01-.376.29l-.647.198a.902.902 0 00-.399.274.71.71 0 00-.128.443c0 .213.063.379.188.496a.688.688 0 00.49.175h8.304zm11.78-.442c-.973.498-2.096.747-3.37.747-1.404 0-2.638-.292-3.7-.877a6.297 6.297 0 01-2.49-2.456c-.597-1.053-.896-2.271-.896-3.655 0-1.454.288-2.728.865-3.822a6.17 6.17 0 012.505-2.555c1.093-.61 2.407-.916 3.942-.916 1.304 0 2.427.257 3.37.77.943.514 1.667 1.211 2.174 2.091.507.88.76 1.859.76 2.937 0 .468-.126.837-.376 1.106l-.06.06c-.247.23-.588.345-1.024.345H86.23l.014.07c.183.838.495 1.508.936 2.012.752.86 1.755 1.29 3.009 1.29.802 0 1.512-.184 2.129-.55.616-.366 1.03-.875 1.24-1.525.121-.133.229-.222.324-.268a.592.592 0 01.248-.068c.1 0 .186.04.256.122.07.081.105.218.105.412 0 .997-.27 1.91-.812 2.738-.541.83-1.299 1.493-2.272 1.992zm-5.334-7.449a11.98 11.98 0 01-.022-.73c0-.956.07-1.708.21-2.258.141-.549.322-.938.543-1.167.22-.229.466-.343.737-.343.35 0 .68.3.985.9.306.6.46 1.597.46 2.99 0 .428-.192.641-.573.641h-2.338l-.002-.033zm19.717 7.449c-.973.498-2.096.747-3.37.747-1.404 0-2.638-.292-3.7-.877a6.297 6.297 0 01-2.49-2.456c-.598-1.053-.896-2.271-.896-3.655 0-1.454.288-2.728.865-3.822a6.17 6.17 0 012.505-2.555c1.093-.61 2.407-.916 3.942-.916 1.304 0 2.427.257 3.37.77.943.514 1.667 1.211 2.174 2.091.506.88.76 1.859.76 2.937 0 .468-.126.837-.376 1.106l-.06.06c-.247.23-.589.345-1.024.345h-6.877l.014.07c.183.838.495 1.508.936 2.012.752.86 1.755 1.29 3.009 1.29.802 0 1.512-.184 2.128-.55.617-.366 1.031-.875 1.242-1.525.12-.133.228-.222.323-.268a.591.591 0 01.248-.068c.101 0 .186.04.256.122.07.081.105.218.105.412a4.9 4.9 0 01-.812 2.738c-.542.83-1.299 1.493-2.272 1.992zm-5.334-7.449a11.431 11.431 0 01-.022-.73c0-.956.07-1.708.211-2.258.14-.549.321-.938.542-1.167.22-.229.466-.343.737-.343.351 0 .679.3.985.9.306.6.459 1.597.459 2.99 0 .428-.191.641-.572.641h-2.338l-.002-.033zm18.16 7.7c-.125.128-.308.191-.549.191h-7.523c-.22 0-.393-.06-.519-.183-.125-.122-.188-.29-.188-.504 0-.162.038-.297.113-.404.075-.107.178-.206.309-.297l.346-.138a.508.508 0 00.27-.29c.051-.132.076-.35.076-.656v-7.75c0-.245-.028-.42-.083-.527a.571.571 0 00-.278-.252l-.392-.045a.967.967 0 01-.308-.26.592.592 0 01-.098-.35.68.68 0 01.151-.436c.1-.127.27-.236.511-.328l4.273-1.235c.251-.102.461-.173.632-.214.17-.04.316-.061.436-.061.171 0 .299.061.384.183l.027.044c.071.128.119.332.146.612l.114 2.371.026-.088c.051-.165.107-.323.168-.475.366-.91.85-1.587 1.452-2.03.602-.442 1.259-.663 1.971-.663.863 0 1.524.29 1.986.87.461.58.692 1.46.692 2.64 0 1.17-.241 2.029-.722 2.578-.482.55-1.104.824-1.866.824-.742 0-1.291-.188-1.647-.565-.356-.376-.544-.91-.564-1.602l-.015-.61c-.01-.234-.056-.417-.136-.55-.08-.131-.21-.198-.391-.198-.181 0-.339.095-.474.283-.135.188-.238.475-.308.862-.071.386-.106.88-.106 1.48v5.37c0 .285.045.511.136.68.09.167.23.271.421.312l1.128.229c.211.03.361.11.452.236.09.127.135.278.135.45a.678.678 0 01-.188.496zm12.028.466c1.495 0 2.806-.31 3.935-.931 1.128-.62 2.011-1.462 2.648-2.525s.955-2.266.955-3.608c0-1.414-.306-2.66-.918-3.739a6.561 6.561 0 00-2.557-2.532c-1.094-.61-2.372-.916-3.837-.916-1.474 0-2.778.316-3.912.946-1.133.63-2.021 1.483-2.662 2.556-.642 1.073-.963 2.28-.963 3.623 0 1.404.306 2.64.917 3.708a6.522 6.522 0 002.566 2.51c1.098.605 2.374.908 3.828.908zm.234-1.999c.296.336.599.473.91.412.311-.061.544-.305.699-.732.156-.428.221-1.06.196-1.9-.025-.84-.158-1.905-.399-3.196-.24-1.292-.496-2.335-.767-3.128-.271-.794-.554-1.358-.85-1.694-.296-.335-.599-.473-.91-.412-.311.071-.542.32-.692.748-.151.427-.211 1.058-.181 1.892.03.834.161 1.897.391 3.189.241 1.291.494 2.334.76 3.127.266.794.547 1.358.843 1.694zm19.235 2.03c.842 0 1.534-.156 2.076-.466.541-.31.945-.68 1.211-1.106.266-.427.399-.82.399-1.175a.696.696 0 00-.098-.382.3.3 0 00-.263-.152.294.294 0 00-.136.03.298.298 0 00-.105.092c-.05.183-.128.31-.233.381a.597.597 0 01-.339.107c-.17 0-.298-.058-.384-.175-.085-.117-.127-.272-.127-.466v-6.743c0-1.343-.454-2.383-1.362-3.12-.908-.738-2.329-1.107-4.265-1.107-1.505 0-2.761.188-3.769.565-1.008.376-1.765.857-2.272 1.442-.506.585-.76 1.182-.76 1.792 0 .651.189 1.147.565 1.488.376.34.92.511 1.632.511.873 0 1.56-.236 2.061-.71.502-.472.752-1.085.752-1.838v-1.16c0-.284.088-.506.264-.663a.94.94 0 01.654-.237c.281 0 .504.105.67.313.165.209.248.49.248.847v4.447l-.08-.017a5.047 5.047 0 00-.841-.08l-.162-.002c-2.157 0-3.764.366-4.822 1.099-1.058.732-1.587 1.754-1.587 3.067 0 .996.363 1.815 1.09 2.456.727.64 1.693.961 2.896.961a5.82 5.82 0 002.528-.557 4.023 4.023 0 001.43-1.097l.021-.026.022.068c.116.33.328.625.636.887l.095.077c.557.432 1.342.648 2.355.648zm-5.183-2.877c.245.33.569.496.97.496l.086-.003c.171-.012.337-.06.497-.143l.049-.028V16.05l-.075-.023a2.339 2.339 0 00-.602-.069c-.391 0-.705.184-.94.55-.236.366-.354.905-.354 1.617 0 .682.123 1.188.369 1.518zm15.789 2.922c1.786 0 3.155-.412 4.108-1.236.952-.824 1.429-1.948 1.429-3.372 0-.864-.161-1.622-.482-2.273-.321-.651-.882-1.228-1.685-1.732-.802-.503-1.93-.979-3.385-1.426-.541-.173-.96-.349-1.256-.527-.296-.178-.499-.368-.609-.572a1.348 1.348 0 01-.166-.656c0-.346.126-.626.376-.84.251-.213.622-.32 1.114-.32.682 0 1.326.23 1.933.687.607.458 1.276 1.24 2.008 2.35.191.234.382.404.572.51.191.108.371.14.542.1a.53.53 0 00.391-.42c.05-.218.04-.531-.03-.938l-.391-2.807c-.04-.295-.116-.504-.226-.626a.56.56 0 00-.436-.183c-.161 0-.361.056-.602.168-.241.112-.479.226-.715.343-.235.117-.414.176-.534.176-.11 0-.273-.061-.489-.183a4.818 4.818 0 00-.91-.367c-.391-.122-.898-.183-1.52-.183-1.033 0-1.963.188-2.79.565-.828.376-1.48.913-1.956 1.61-.477.696-.715 1.528-.715 2.494 0 .854.178 1.602.534 2.243.356.64.9 1.19 1.633 1.648.732.457 1.655.829 2.768 1.113.722.194 1.276.39 1.662.588.386.198.652.414.798.648.145.234.218.494.218.778 0 .377-.126.687-.376.931-.251.244-.632.366-1.144.366-.481 0-.94-.104-1.376-.312-.437-.209-.885-.567-1.347-1.076-.461-.509-.978-1.205-1.549-2.09a1.41 1.41 0 00-.58-.489.775.775 0 00-.654.016c-.211.081-.346.254-.406.518-.061.265-.045.59.045.977l.466 3.036c.07.305.171.509.301.61.13.102.271.153.421.153.171 0 .379-.056.625-.168l.737-.335c.246-.112.444-.168.594-.168.151 0 .349.056.594.168.246.111.567.223.963.335.397.112.896.168 1.497.168zm14.263-.572c-.662.35-1.444.526-2.347.526-1.525 0-2.671-.371-3.438-1.114-.767-.742-1.151-1.912-1.151-3.509V11c0-.214-.02-.377-.06-.488-.04-.112-.14-.204-.301-.275l-.707-.229c-.171-.081-.281-.18-.331-.297a1.108 1.108 0 01-.075-.435c0-.214.075-.39.225-.527a.796.796 0 01.557-.206h.737a.498.498 0 00.286-.106c.1-.072.236-.214.406-.428l2.784-2.334c.2-.244.401-.43.601-.557a1.12 1.12 0 01.602-.19c.231 0 .412.07.542.213l.041.05c.103.143.155.35.155.621l-.001 2.731h3.145c.221 0 .391.049.511.145.121.097.181.247.181.45 0 .285-.125.53-.376.733l-.056.042c-.253.175-.636.263-1.148.263h-2.257l.001 6.957c0 .763.127 1.328.383 1.694.256.366.63.55 1.121.55.211 0 .406-.047.587-.138.18-.092.343-.211.489-.359.145-.147.283-.313.413-.495.131-.184.256-.367.377-.55.1-.04.188-.023.263.054.075.076.108.231.098.465-.071.824-.299 1.549-.685 2.174a4.027 4.027 0 01-1.572 1.465zm9.854.526c1.274 0 2.397-.249 3.37-.747.973-.499 1.731-1.163 2.272-1.992a4.901 4.901 0 00.813-2.738c0-.194-.035-.33-.106-.412a.325.325 0 00-.255-.122.595.595 0 00-.249.068 1.144 1.144 0 00-.323.268c-.211.65-.625 1.159-1.241 1.525-.617.366-1.327.55-2.129.55-1.254 0-2.257-.43-3.009-1.29-.441-.504-.753-1.174-.935-2.012l-.015-.07h6.877c.436 0 .777-.115 1.024-.345l.06-.06c.25-.27.376-.638.376-1.106 0-1.078-.253-2.057-.76-2.937-.506-.88-1.231-1.577-2.174-2.09-.943-.514-2.066-.77-3.37-.77-1.535 0-2.849.304-3.942.915a6.173 6.173 0 00-2.505 2.555c-.576 1.094-.865 2.368-.865 3.822 0 1.384.299 2.602.895 3.655a6.3 6.3 0 002.49 2.456c1.063.585 2.297.877 3.701.877zm-1.986-8.925c0 .252.008.495.022.73l.002.032h2.338c.382 0 .572-.213.572-.64 0-1.394-.153-2.39-.459-2.99-.306-.6-.634-.901-.985-.901-.271 0-.517.114-.737.343-.221.23-.402.618-.542 1.168-.14.549-.211 1.301-.211 2.258zm17.633 8.62c.241 0 .424-.064.549-.19a.674.674 0 00.188-.497.759.759 0 00-.135-.45c-.09-.127-.241-.206-.452-.236l-1.128-.229a.597.597 0 01-.421-.313c-.09-.168-.136-.394-.136-.679v-5.37c0-.6.036-1.094.106-1.48.07-.387.173-.674.308-.862.136-.188.294-.283.474-.283.181 0 .311.066.391.199.081.132.126.315.136.549l.015.61c.02.692.208 1.226.564 1.602.356.377.905.565 1.647.565.763 0 1.384-.275 1.866-.824.481-.55.722-1.409.722-2.579 0-1.18-.231-2.06-.692-2.64-.461-.579-1.123-.869-1.986-.869-.712 0-1.369.221-1.971.664-.602.442-1.086 1.119-1.452 2.03-.061.15-.117.31-.167.475l-.027.087-.114-2.37c-.027-.281-.075-.485-.146-.613l-.027-.044c-.085-.122-.213-.183-.384-.183-.12 0-.266.02-.436.061-.171.04-.381.112-.632.214l-4.273 1.236c-.24.091-.411.2-.511.327a.68.68 0 00-.151.435c0 .143.033.26.098.351a.96.96 0 00.309.26l.391.045c.13.062.223.145.278.252.055.107.083.282.083.527v7.75c0 .306-.025.524-.075.656a.513.513 0 01-.271.29l-.346.138c-.131.091-.233.19-.309.297a.687.687 0 00-.113.404c0 .214.063.382.189.504.125.122.298.183.519.183h7.522zm15.842-.885c-.952.824-2.322 1.236-4.107 1.236-.602 0-1.101-.056-1.497-.168a6.955 6.955 0 01-.963-.335c-.245-.112-.444-.168-.594-.168-.15 0-.349.056-.594.168l-.738.335c-.245.112-.453.168-.624.168a.671.671 0 01-.421-.153c-.131-.101-.231-.305-.301-.61l-.466-3.036c-.091-.387-.106-.712-.046-.977.061-.264.196-.437.407-.518a.775.775 0 01.654-.016c.216.092.409.255.579.489.572.885 1.089 1.581 1.55 2.09.461.509.91.867 1.346 1.076a3.16 3.16 0 001.377.312c.512 0 .893-.122 1.144-.366.25-.244.376-.554.376-.93a1.44 1.44 0 00-.219-.779c-.145-.234-.411-.45-.797-.648-.386-.199-.94-.394-1.662-.588-1.114-.284-2.036-.656-2.769-1.113-.732-.458-1.276-1.007-1.632-1.648-.356-.64-.534-1.389-.534-2.243 0-.966.238-1.798.715-2.495.476-.696 1.128-1.233 1.955-1.61.828-.376 1.758-.564 2.791-.564.622 0 1.129.061 1.52.183s.694.244.91.367c.216.122.379.183.489.183.12 0 .298-.059.534-.176.236-.117.474-.231.715-.343.24-.112.441-.168.601-.168.181 0 .326.061.437.183.11.122.185.33.225.626l.392 2.807c.07.407.08.72.03.938a.53.53 0 01-.391.42c-.171.04-.352.008-.542-.1a2.072 2.072 0 01-.572-.51c-.732-1.11-1.401-1.892-2.008-2.35-.607-.458-1.252-.687-1.934-.687-.491 0-.862.107-1.113.32a1.048 1.048 0 00-.376.84c0 .234.055.453.165.656.111.204.314.394.61.572.296.178.714.354 1.256.527 1.454.447 2.583.923 3.385 1.426.803.504 1.364 1.08 1.685 1.732.321.65.482 1.409.482 2.273 0 1.424-.477 2.548-1.43 3.372z" fill="#fff"/><path fill-rule="evenodd" clip-rule="evenodd" d="M13.282 4.104C10.038.862 5.23.396 2.562 3.065-.104 5.733.363 10.542 3.6 13.785a9.79 9.79 0 002.91 1.998c.345-2.003 1.334-3.93 2.835-5.51A21.281 21.281 0 007.806 9.8c-3.148-.864-4.713-3.49-5.078-6.57.302.364.577.745.852 1.125.532.738 1.062 1.471 1.78 2.062 1.117.92 2.343 1.275 3.685 1.664l.156.045a6.62 6.62 0 011.694.776c1.332-.974 2.835-1.622 4.385-1.89a9.758 9.758 0 00-1.998-2.908zM7.797 16.553c.206-2.006 1.178-3.968 2.736-5.526 3.244-3.242 8.052-3.71 10.719-1.039 2.668 2.669 2.203 7.477-1.04 10.72-1.558 1.558-3.52 2.53-5.526 2.738-.267.026-.531.04-.79.04-1.726 0-3.267-.605-4.402-1.74-1.307-1.306-1.91-3.15-1.697-5.193zm4.744 1.646c1.064-.811 2.214-1.132 3.466-1.474 3.149-.864 4.712-3.491 5.079-6.57-.3.361-.573.74-.846 1.118-.534.74-1.065 1.476-1.786 2.069-1.12.921-2.35 1.277-3.697 1.667l-.144.042c-3.08.894-4.604 3.499-4.956 6.53.304-.365.582-.744.858-1.12.6-.817 1.194-1.626 2.026-2.262z" fill="#0E8784"/></svg>